<?xml version="1.0" standalone="no"?>
<!DOCTYPE svg PUBLIC "-//W3C//DTD SVG 20010904//EN"
 "http://www.w3.org/TR/2001/REC-SVG-20010904/DTD/svg10.dtd">
<svg version="1.0" xmlns="http://www.w3.org/2000/svg"
 width="260.000000pt" height="260.000000pt" viewBox="0 0 260.000000 260.000000"
 preserveAspectRatio="xMidYMid meet">
<metadata>
Created by potrace 1.14, written by Peter Selinger 2001-2017
</metadata>
<g transform="translate(0.000000,260.000000) scale(0.100000,-0.100000)"
fill="#000000" stroke="none">
<path d="M965 2060 c-8 -13 -8 -787 0 -800 11 -17 44 -11 56 11 6 12 8 39 5
63 -3 22 -7 192 -7 376 -1 202 -6 340 -12 348 -11 15 -33 16 -42 2z"/>
<path d="M1133 2021 c-12 -6 -26 -18 -31 -28 -15 -27 -10 -329 5 -344 10 -10
21 -10 52 1 55 18 158 7 251 -26 63 -22 93 -27 185 -28 127 -1 168 13 189 67
14 34 15 314 2 336 -11 17 -42 13 -86 -9 -44 -23 -149 -27 -197 -9 -81 31
-328 58 -370 40z"/>
<path d="M730 1143 c-30 -11 -40 -37 -40 -110 0 -84 11 -112 65 -163 63 -60
68 -78 60 -211 -6 -114 -6 -117 16 -133 21 -14 77 -16 490 -16 445 0 468 1
490 19 23 18 24 25 24 149 l0 130 53 55 c28 31 56 67 62 81 11 31 1 161 -15
182 -13 18 -93 29 -113 16 -7 -5 -16 -34 -19 -65 -7 -67 -22 -85 -58 -69 -18
9 -25 21 -30 59 -8 65 -17 77 -53 81 -43 4 -82 -34 -82 -81 0 -40 -15 -57 -51
-57 -34 0 -37 5 -44 66 -8 59 -19 74 -56 74 -36 0 -59 -32 -59 -82 0 -31 -5
-41 -25 -50 -41 -18 -71 2 -79 53 -9 53 -30 79 -67 79 -34 0 -49 -24 -49 -77
0 -44 -14 -63 -46 -63 -29 0 -54 35 -54 76 0 39 -14 51 -67 60 -35 5 -43 3
-52 -14 -6 -11 -11 -39 -11 -61 0 -37 -19 -71 -41 -71 -22 0 -49 42 -49 76 0
53 -15 74 -53 73 -18 0 -39 -3 -47 -6z"/>
</g>
</svg>
